# xmcd CD database file
#
# Track frame offsets:
#	150
#	25850
#	53593
#	78392
#	104402
#	126584
#	153757
#	179142
#	207611
#	231638
#
# Disc length: 3512 seconds
#
# Revision: 0
# Processed by: cddbd v1.5.1PL2 Copyright (c) Steve Scherf et al.
# Submitted via: CDex 1.50beta8
#
DISCID=8e0db60a
DTITLE=Hulot - Deco
DYEAR=1900
DGENRE=Techno
TTITLE0=Light Up
TTITLE1=Stair Way
TTITLE2=Alley
TTITLE3=Modern Living
TTITLE4=Roam
TTITLE5=White Garege
TTITLE6=Play Time
TTITLE7=Buttons
TTITLE8=Casa
TTITLE9=High Lise
EXTD=
EXTT0=
EXTT1=
EXTT2=
EXTT3=
EXTT4=
EXTT5=
EXTT6=
EXTT7=
EXTT8=
EXTT9=
PLAYORDER=
